
<?xml version="1.0" encoding="iso-8859-1"?>
<!-- Generator: Adobe Illustrator 16.0.0, SVG Export Plug-In . SVG Version: 6.00 Build 0)  -->
<!DOCTYPE svg PUBLIC "-//W3C//DTD SVG 1.1//EN" "http://www.w3.org/Graphics/SVG/1.1/DTD/svg11.dtd">
<svg version="1.1" id="Capa_1" xmlns="http://www.w3.org/2000/svg" xmlns:xlink="http://www.w3.org/1999/xlink" x="0px" y="0px"
	 width="30.713px" height="30.713px" viewBox="0 0 30.713 30.713" style="enable-background:new 0 0 30.713 30.713;"
	 xml:space="preserve">
<g>
	<path d="M19.026,18.818c1.055-1.071,1.838-2.514,2.305-3.891c0.637-0.262,1.154-0.914,1.354-1.699
		c0.182-0.729,0.609-2.432-0.328-2.957V9.055c0.064-2.158-0.188-4.777-2.664-5.848c-0.197-0.52-0.238-0.977-0.244-1.064L19.237,0
		l-1.523,1.436c-0.498,0.469-2.792,0.922-4.262,1.068l-0.7,0.109c-4.5,0.707-4.437,2.989-4.369,5.412
		C8.391,8.34,8.4,8.672,8.4,9.027l0.033,1.1c-0.674,0.445-0.829,1.5-0.449,3.057c0.193,0.775,0.74,1.43,1.334,1.609
		c0.286,0.791,1.059,2.637,2.403,4.018c-5.614,1.408-9.744,5.982-9.744,11.402v0.5h26.758v-0.5
		C28.735,24.803,24.624,20.236,19.026,18.818z M22.241,29.713v-2.615c0-0.277-0.225-0.5-0.5-0.5s-0.5,0.223-0.5,0.5v2.615H9.474
		v-2.615c0-0.277-0.224-0.5-0.5-0.5c-0.276,0-0.5,0.223-0.5,0.5v2.615H2.991c0.208-4,2.898-7.439,6.745-9.168
		c1.236,1.895,3.336,3.061,5.621,3.061c2.283,0,4.384-1.166,5.621-3.061c3.849,1.729,6.539,5.168,6.746,9.168H22.241z
		 M10.673,20.163c0.64-0.229,1.31-0.408,1.998-0.541c0.764,0.528,1.658,0.885,2.705,0.885c1.003,0,1.901-0.338,2.69-0.879
		c0.679,0.133,1.338,0.308,1.972,0.533c-1.064,1.521-2.806,2.444-4.683,2.444C13.478,22.605,11.737,21.68,10.673,20.163z
		 M10.139,14.014c-0.384,0.082-0.982-0.377-1.157-1.08c-0.18-0.715-0.298-1.871,0.091-1.979c0.115-0.033,0.236-0.008,0.355,0.055
		V9.024c0-3.125-0.704-4.959,4.173-5.481l-0.043-0.015c0,0,3.846-0.387,4.859-1.342c0,0,0.027,0.805,0.438,1.689
		c2.25,0.904,2.533,2.988,2.469,5.148v1.987c0.119-0.063,0.24-0.09,0.355-0.058c0.389,0.107,0.182,1.311,0.002,2.023
		c-0.174,0.695-0.676,1.109-1.059,1.037c-0.498,1.51-1.476,3.425-2.863,4.541c-0.193,0.156-0.396,0.299-0.609,0.42
		c-0.33,0.189-0.68,0.328-1.047,0.41c-0.236,0.053-0.478,0.088-0.729,0.088c-0.257,0-0.502-0.035-0.743-0.09
		c-0.372-0.082-0.726-0.219-1.058-0.408c-0.212-0.123-0.414-0.266-0.609-0.422C11.591,17.451,10.634,15.557,10.139,14.014z"/>
</g>
<g>
</g>
<g>
</g>
<g>
</g>
<g>
</g>
<g>
</g>
<g>
</g>
<g>
</g>
<g>
</g>
<g>
</g>
<g>
</g>
<g>
</g>
<g>
</g>
<g>
</g>
<g>
</g>
<g>
</g>
</svg>
